<svg width="20" height="20" viewBox="0 0 20 20" fill="none" xmlns="http://www.w3.org/2000/svg">
<g clip-path="url(#clip0_132_1039)">
<path d="M18.838 0.187414C17.6181 -0.400724 15.9989 0.441548 15.2075 2.068C14.416 3.69446 14.7791 5.48792 15.9989 6.07605C17.2188 6.66419 18.8743 5.82192 19.6004 4.19547C20.3265 2.56901 20.0578 0.775552 18.838 0.187414ZM5.36887 6.72228C6.26923 5.71301 5.91345 3.91955 4.56291 2.72149C3.21237 1.52343 1.39713 1.36369 0.496768 2.37296C-0.403591 3.38224 -0.0478042 5.1757 1.30273 6.37375C2.65327 7.57181 4.46125 7.70977 5.36887 6.7005V6.72228ZM13.6101 7.94212C13.3922 6.14866 12.1579 4.83443 10.7783 4.99417C9.39871 5.15391 8.52739 6.74406 8.74522 8.53752C8.96305 10.331 10.1974 11.6452 11.577 11.4855C12.9566 11.3257 13.7916 9.7138 13.6028 7.92034L13.6101 7.94212ZM13.0655 14.6658C11.5407 15.6315 10.8872 17.3378 11.6133 18.485C12.3394 19.6323 14.1619 19.7775 15.6867 18.8118C17.2115 17.8461 17.865 16.1397 17.1389 14.9925C16.4128 13.8453 14.583 13.7001 13.0655 14.6658ZM5.32531 10.0405C3.97477 9.93889 2.76945 11.3112 2.63149 13.1119C2.49353 14.9126 3.47376 16.452 4.80978 16.5536C6.1458 16.6553 7.36564 15.283 7.5036 13.4822C7.64155 11.6815 6.67585 10.1422 5.32531 10.0405Z" fill="white"/>
</g>
<defs>
<clipPath id="clip0_132_1039">
<rect width="20" height="20" fill="white"/>
</clipPath>
</defs>
</svg>
