<svg width="20" height="20" viewBox="0 0 20 20" fill="none" xmlns="http://www.w3.org/2000/svg">
<g clip-path="url(#clip0_130_977)">
<path d="M3.63613 0.000931723C3.48139 0.00091088 3.3292 0.0403919 3.19398 0.115636C3.05877 0.190879 2.945 0.299394 2.86345 0.430904C2.71209 0.676134 2.56511 0.924036 2.42257 1.17449C2.08665 1.75614 1.76626 2.34661 1.46172 2.94529C1.09537 3.657 0.768533 4.38836 0.482696 5.13605C0.219077 5.84419 0 6.61323 0 7.27319C7.38148e-05 8.2375 0.383197 9.16229 1.0651 9.84414C1.74699 10.526 2.67181 10.909 3.63613 10.909C4.60044 10.909 5.52526 10.526 6.20716 9.84414C6.88906 9.16229 7.27218 8.2375 7.27225 7.27319C7.27225 6.61414 7.05227 5.8451 6.78956 5.13514C6.50366 4.38807 6.17682 3.65731 5.81053 2.94619C5.37533 2.09031 4.90775 1.25127 4.4088 0.430904C4.32726 0.299394 4.21349 0.190879 4.07827 0.115636C3.94305 0.0403919 3.79087 0.000910876 3.63613 0.000931723ZM7.27225 13.6364C7.27221 14.4721 7.43676 15.2996 7.75652 16.0716C8.07628 16.8437 8.54498 17.5452 9.13587 18.1361C9.72675 18.727 10.4282 19.1958 11.2003 19.5156C11.9723 19.8354 12.7998 20 13.6355 20C14.4711 20 15.2986 19.8354 16.0707 19.5156C16.8427 19.1958 17.5442 18.727 18.1351 18.1361C18.726 17.5452 19.1947 16.8437 19.5144 16.0716C19.8342 15.2996 19.9987 14.4721 19.9987 13.6364C19.9987 12.4865 19.6087 11.0748 19.0897 9.67758C18.5624 8.25585 17.8634 6.75413 17.1734 5.39149C16.3335 3.74027 15.4327 2.12078 14.4727 0.536351L14.4091 0.430904C14.3276 0.299156 14.2138 0.190415 14.0785 0.115C13.9432 0.0395857 13.7908 0 13.6359 0C13.481 0 13.3287 0.0395857 13.1934 0.115C13.0581 0.190415 12.9443 0.299156 12.8628 0.430904L12.7992 0.536351L12.6219 0.827242C11.7277 2.3186 10.8858 3.84063 10.0975 5.39058C9.40666 6.75413 8.70943 8.25585 8.18129 9.67758C7.66223 11.0748 7.27225 12.4865 7.27225 13.6364Z" fill="white"/>
</g>
<defs>
<clipPath id="clip0_130_977">
<rect width="20" height="20" fill="white"/>
</clipPath>
</defs>
</svg>
