<svg width="20" height="20" viewBox="0 0 20 20" fill="none" xmlns="http://www.w3.org/2000/svg">
<g clip-path="url(#clip0_132_1044)">
<path d="M9.99992 19.926C9.64548 19.9315 9.29577 19.8441 8.98563 19.6724L8.68134 19.5C6.31122 18.1591 4.33942 16.2131 2.9673 13.8609C1.59518 11.5087 0.871895 8.8345 0.871297 6.11134V5.96934C0.868082 5.61017 0.96029 5.25658 1.1385 4.94472C1.3167 4.63286 1.57452 4.37391 1.88559 4.19433L8.98563 0.198018C9.29402 0.0199724 9.64383 -0.073761 9.99992 -0.073761C10.356 -0.073761 10.7058 0.0199724 11.0142 0.198018L18.1143 4.19433C18.4253 4.37391 18.6831 4.63286 18.8614 4.94472C19.0396 5.25658 19.1318 5.61017 19.1285 5.96934V6.11134C19.1259 8.8365 18.3996 11.5121 17.0238 13.8645C15.648 16.2169 13.6721 18.1617 11.2982 19.5L10.9939 19.6724C10.6898 19.8407 10.3475 19.928 9.99992 19.926Z" fill="white"/>
</g>
<defs>
<clipPath id="clip0_132_1044">
<rect width="20" height="20" fill="white"/>
</clipPath>
</defs>
</svg>
