<svg width="20" height="20" viewBox="0 0 20 20" fill="none" xmlns="http://www.w3.org/2000/svg">
<path d="M3.21526 15.217C3.3009 15.2187 3.38442 15.1907 3.45127 15.138L16.6114 4.7704C16.6854 4.71287 16.7343 4.62972 16.7483 4.53789C16.7563 4.48787 16.7534 4.43676 16.74 4.38788C16.7266 4.33901 16.7029 4.29347 16.6704 4.25423C15.2129 2.45885 13.0911 1.3074 10.7718 1.05319C8.45252 0.798977 6.12573 1.46283 4.30328 2.8987C2.48084 4.33458 1.31203 6.42485 1.05399 8.7097C0.795946 10.9945 1.4698 13.2868 2.92732 15.0822C2.9621 15.1243 3.006 15.1583 3.05582 15.1817C3.10563 15.205 3.1601 15.2171 3.21526 15.217ZM4.64786 7.97437C4.78774 6.90089 5.3517 5.92507 6.21735 5.25867C6.95755 4.66688 7.87916 4.33911 8.83238 4.32863C9.32966 4.31927 9.82267 4.42063 10.2746 4.62514C10.7266 4.82966 11.1259 5.13205 11.4427 5.50978C11.5019 5.58606 11.5297 5.68155 11.5206 5.77716C11.5074 5.86816 11.4603 5.95105 11.3884 6.00967L5.82557 10.3855C5.78806 10.4153 5.74491 10.4375 5.69862 10.4507C5.65234 10.4639 5.60384 10.4679 5.55596 10.4625C5.50808 10.4571 5.46178 10.4424 5.41973 10.4192C5.37769 10.396 5.34075 10.3648 5.31106 10.3274C5.0485 9.9976 4.85474 9.61994 4.74092 9.21612C4.6271 8.8123 4.59548 8.39028 4.64786 7.97437ZM18.7898 5.78646C18.7261 5.75662 18.6552 5.74494 18.5851 5.75274C18.5151 5.76055 18.4486 5.78754 18.3933 5.83064L2.41989 18.3605C2.35918 18.4074 2.31508 18.4721 2.29389 18.5451C2.27269 18.6182 2.27549 18.696 2.30189 18.7674C2.32937 18.8369 2.3778 18.8965 2.44067 18.9381C2.50355 18.9796 2.57784 19.0012 2.65355 18.9999H18.6269C18.6758 19.0003 18.7242 18.991 18.7695 18.9728C18.8147 18.9546 18.8558 18.9278 18.8905 18.8939C18.9251 18.8599 18.9527 18.8196 18.9714 18.7751C18.9902 18.7307 18.9998 18.683 18.9998 18.6349V6.1143C19.0019 6.04377 18.9831 5.97417 18.9458 5.91393C18.9086 5.85368 18.8544 5.80537 18.7898 5.77484V5.78646ZM16.255 15.9471C16.255 16.1494 15.9647 16.3075 15.7594 16.3075H10.5034C10.4256 16.3082 10.3495 16.2848 10.2859 16.2406C10.2224 16.1963 10.1746 16.1335 10.1493 16.061C10.1223 15.9878 10.1201 15.9078 10.143 15.8332C10.166 15.7585 10.213 15.6933 10.2768 15.6472L15.5328 11.755C15.5998 11.7134 15.6761 11.6885 15.755 11.6825C15.834 11.6764 15.9132 11.6893 15.986 11.7201C16.0553 11.7472 16.1164 11.7913 16.1635 11.8483C16.2106 11.9053 16.2421 11.9732 16.255 12.0456V15.9471Z" fill="white"/>
</svg>
