<svg width="20" height="20" viewBox="0 0 20 20" fill="none" xmlns="http://www.w3.org/2000/svg">
<g clip-path="url(#clip0_130_1002)">
<path d="M9.32406 11.0002H10.2803C10.5615 11.0002 10.8115 10.844 10.9328 10.594C11.05 10.3401 11.0109 10.0509 10.8273 9.84023L8.38658 7.00028H9.28906C9.57428 7.00028 9.83218 6.83232 9.94155 6.57467C10.0548 6.32077 10.0001 6.02405 9.80874 5.82093L6.36162 2.15272C6.17412 1.9496 5.82256 1.9496 5.63507 2.15272L2.18576 5.82218C1.99826 6.0253 1.94357 6.32217 2.05685 6.57592C2.16607 6.83154 2.42388 7.00028 2.70919 7.00028H3.61167L1.16984 9.84086C0.986248 10.0557 0.947186 10.3408 1.06437 10.5946C1.18546 10.844 1.43171 11.0002 1.7167 11.0002H2.67387L0.17767 13.8283C-0.00982689 14.0392 -0.0528574 14.332 0.0643905 14.5861C0.181545 14.8376 0.439227 15.0001 0.720785 15.0001H4.99914V17.0001C4.99914 17.5532 5.44601 18.0001 5.99912 18.0001C6.55224 18.0001 6.99911 17.5532 6.99911 17.0001V15.0001H11.2772C11.5584 15.0001 11.8162 14.8361 11.9334 14.5861C12.0506 14.3322 12.0115 14.0392 11.824 13.8283L9.32406 11.0002ZM19.8207 13.8283L17.3239 11.0002H18.2811C18.5623 11.0002 18.8123 10.844 18.9336 10.594C19.0508 10.3401 19.0117 10.0509 18.8281 9.84023L16.3864 7.00028H17.2889C17.5741 7.00028 17.832 6.83232 17.9414 6.57467C18.0547 6.32077 18 6.02405 17.8086 5.82093L14.3618 2.15225C14.1743 1.94913 13.8227 1.94913 13.6352 2.15225L10.6622 5.31782C11.01 5.79843 11.0997 6.41936 10.8614 6.97028C10.7403 7.25519 10.543 7.50117 10.2911 7.68121L11.588 9.18899C12.0255 9.6968 12.1233 10.4155 11.838 11.0208C11.7052 11.2982 11.5099 11.5246 11.2715 11.6927L12.5724 13.1655C12.8419 13.4741 12.9902 13.6092 12.998 13.9998L12.999 17.0001C12.999 17.5532 13.4459 18.0001 13.999 18.0001C14.5521 18.0001 14.999 17.5532 14.999 17.0001V15.0001H19.277C19.5583 15.0001 19.8161 14.8361 19.9332 14.5861C20.052 14.3314 20.0082 14.0408 19.8207 13.8283Z" fill="white"/>
</g>
<defs>
<clipPath id="clip0_130_1002">
<rect width="20" height="20" fill="white"/>
</clipPath>
</defs>
</svg>
