<svg width="20" height="20" viewBox="0 0 20 20" fill="none" xmlns="http://www.w3.org/2000/svg">
<g clip-path="url(#clip0_130_982)">
<path d="M11.7848 6.34451C11.3957 5.96191 10.7717 5.9619 10.3826 6.3445L0.931056 15.6377C0.842865 15.7236 0.77277 15.8263 0.724908 15.9397C0.677046 16.0531 0.652387 16.1749 0.652387 16.298C0.652387 16.4211 0.677046 16.5429 0.724908 16.6563C0.77277 16.7697 0.842865 16.8724 0.931056 16.9582L3.61766 19.5992C3.80291 19.7826 4.04611 19.8738 4.28931 19.8738C4.53251 19.8738 4.77571 19.7826 4.96096 19.6002L14.3884 10.3306C14.7869 9.93879 14.7869 9.29637 14.3884 8.90453L11.7848 6.34451ZM19.0685 5.72876C19.0685 5.72893 19.0687 5.72902 19.0688 5.7289C19.1568 5.6431 19.2268 5.54056 19.2746 5.42731C19.3225 5.31391 19.3471 5.19207 19.3471 5.06898C19.3471 4.94589 19.3225 4.82406 19.2746 4.71066C19.2267 4.59726 19.1566 4.49459 19.0685 4.40873L16.3819 1.76488C16.2025 1.58907 15.9614 1.4906 15.7102 1.4906C15.4591 1.4906 15.2179 1.58907 15.0386 1.76488L13.152 3.62054C12.7536 4.01244 12.7537 4.65482 13.1522 5.04659L15.7559 7.60609C16.145 7.98857 16.7688 7.98859 17.1579 7.60614L19.0681 5.72861C19.0682 5.72849 19.0685 5.72858 19.0685 5.72876ZM15.6998 16.7559H15.6846C15.1683 16.7559 14.7498 16.3374 14.7498 15.8211C14.7489 15.6973 14.7236 15.575 14.6754 15.461C14.6271 15.347 14.5568 15.2437 14.4686 15.157C14.3803 15.0702 14.2758 15.0017 14.1611 14.9554C14.0463 14.9092 13.9235 14.886 13.7998 14.8872C13.676 14.886 13.5532 14.9092 13.4385 14.9554C13.3237 15.0017 13.2192 15.0702 13.1309 15.157C13.0427 15.2437 12.9724 15.347 12.9242 15.461C12.8759 15.575 12.8506 15.6973 12.8498 15.8211C12.8498 16.3374 12.4312 16.7559 11.915 16.7559H11.8998C11.776 16.7546 11.6532 16.7778 11.5385 16.8241C11.4237 16.8704 11.3192 16.9389 11.2309 17.0256C11.1427 17.1124 11.0724 17.2157 11.0242 17.3297C10.9759 17.4436 10.9506 17.566 10.9498 17.6897C10.9506 17.8135 10.9759 17.9358 11.0242 18.0498C11.0724 18.1638 11.1427 18.2671 11.2309 18.3538C11.3192 18.4406 11.4237 18.5091 11.5385 18.5554C11.6532 18.6017 11.776 18.6248 11.8998 18.6236H11.915C12.4312 18.6236 12.8498 19.0421 12.8498 19.5584C12.8506 19.6821 12.8759 19.8045 12.9242 19.9185C12.9724 20.0324 13.0427 20.1357 13.1309 20.2225C13.2192 20.3092 13.3237 20.3777 13.4385 20.424C13.5532 20.4703 13.676 20.4935 13.7998 20.4922C14.3251 20.4922 14.7498 20.0742 14.7498 19.5584C14.7498 19.0421 15.1683 18.6236 15.6846 18.6236H15.6998C16.2251 18.6236 16.6498 18.2056 16.6498 17.6897C16.6489 17.566 16.6236 17.4436 16.5754 17.3297C16.5271 17.2157 16.4568 17.1124 16.3686 17.0256C16.2803 16.9389 16.1758 16.8704 16.0611 16.8241C15.9463 16.7778 15.8235 16.7546 15.6998 16.7559ZM1.44976 9.28223H1.46591C1.98166 9.28223 2.39976 9.70033 2.39976 10.2161C2.4005 10.3399 2.42569 10.4624 2.47388 10.5764C2.52208 10.6905 2.59232 10.794 2.68059 10.8808C2.76886 10.9677 2.87341 11.0362 2.98824 11.0826C3.10307 11.1289 3.22593 11.1521 3.34976 11.1509C3.87511 11.1509 4.29976 10.7329 4.29976 10.2161C4.29976 9.70033 4.71785 9.28223 5.23361 9.28223H5.24976C5.77511 9.28223 6.19976 8.86423 6.19976 8.34838C6.19889 8.22463 6.1736 8.10227 6.12536 7.98831C6.07711 7.87434 6.00684 7.77103 5.91859 7.68427C5.83033 7.59752 5.72582 7.52903 5.61105 7.48275C5.49628 7.43646 5.3735 7.41328 5.24976 7.41453H5.23456C4.71828 7.41453 4.29976 6.99601 4.29976 6.47973C4.29889 6.35598 4.2736 6.23362 4.22536 6.11966C4.17711 6.00569 4.10684 5.90238 4.01859 5.81562C3.93033 5.72887 3.82583 5.66038 3.71105 5.6141C3.59628 5.56781 3.4735 5.54463 3.34976 5.54588C3.22601 5.54463 3.10323 5.56781 2.98846 5.6141C2.87369 5.66038 2.76918 5.72887 2.68092 5.81562C2.59267 5.90238 2.5224 6.00569 2.47416 6.11966C2.42591 6.23362 2.40062 6.35598 2.39976 6.47973C2.39976 6.99601 1.98123 7.41453 1.46496 7.41453H1.44976C1.32601 7.41328 1.20323 7.43646 1.08846 7.48275C0.973687 7.52903 0.869179 7.59752 0.780924 7.68427C0.69267 7.77103 0.622405 7.87434 0.574156 7.98831C0.525908 8.10227 0.500625 8.22463 0.499756 8.34838C0.500625 8.47213 0.525908 8.59449 0.574156 8.70846C0.622405 8.82242 0.69267 8.92574 0.780924 9.01249C0.869179 9.09924 0.973687 9.16773 1.08846 9.21401C1.20323 9.2603 1.32601 9.28348 1.44976 9.28223ZM16.6498 13.0191C16.6498 12.503 16.2314 12.0847 15.7154 12.0847H15.6841C15.1681 12.0847 14.7498 12.503 14.7498 13.0191C14.7498 13.5351 15.1681 13.9534 15.6841 13.9534H15.7154C16.2314 13.9534 16.6498 13.5351 16.6498 13.0191ZM10.9498 2.74338C10.9498 2.22763 10.5317 1.80953 10.0159 1.80953H9.98361C9.46785 1.80953 9.04976 2.22763 9.04976 2.74338C9.04976 3.25913 9.46785 3.67723 9.98361 3.67723H10.0159C10.5317 3.67723 10.9498 3.25913 10.9498 2.74338ZM8.09976 4.61156C8.09976 4.09554 7.68144 3.67723 7.16543 3.67723H7.13408C6.61807 3.67723 6.19976 4.09554 6.19976 4.61156C6.19976 5.12757 6.61807 5.54588 7.13408 5.54588H7.16543C7.68145 5.54588 8.09976 5.12757 8.09976 4.61156ZM5.24976 2.74338C5.24976 2.22763 4.83166 1.80953 4.31591 1.80953H4.2836C3.76785 1.80953 3.34976 2.22763 3.34976 2.74338C3.34976 3.25913 3.76785 3.67723 4.28361 3.67723H4.31591C4.83166 3.67723 5.24976 3.25913 5.24976 2.74338ZM19.4998 10.2166C19.4998 9.70054 19.0814 9.28223 18.5654 9.28223H18.5341C18.0181 9.28223 17.5998 9.70054 17.5998 10.2166C17.5998 10.7326 18.0181 11.1509 18.5341 11.1509H18.5654C19.0814 11.1509 19.4998 10.7326 19.4998 10.2166ZM19.4998 14.8872C19.4998 14.3715 19.0817 13.9534 18.5659 13.9534H18.5336C18.0179 13.9534 17.5998 14.3715 17.5998 14.8872C17.5998 15.403 18.0179 15.8211 18.5336 15.8211H18.5659C19.0817 15.8211 19.4998 15.403 19.4998 14.8872Z" fill="white"/>
</g>
<defs>
<clipPath id="clip0_130_982">
<rect width="20" height="20" fill="white"/>
</clipPath>
</defs>
</svg>
