<svg width="20" height="20" viewBox="0 0 20 20" fill="none" xmlns="http://www.w3.org/2000/svg">
<path d="M12.7191 15.1117L12.9979 14.6745H13.4795C15.9317 14.6745 17.915 12.9636 17.915 10.8725C17.8997 10.2514 17.7272 9.64436 17.4136 9.10802C17.1 8.57169 16.6555 8.12361 16.1218 7.80566C16.4592 7.34839 16.6433 6.79611 16.6477 6.22786C16.6477 4.56769 15.0889 3.22435 13.1626 3.22435C12.9633 3.2244 12.7642 3.23923 12.567 3.2687C12.1655 2.43846 11.5341 1.74093 10.7479 1.25905C9.96156 0.777163 9.05343 0.531179 8.13142 0.550335C6.91075 0.505691 5.72196 0.945686 4.82449 1.7743C3.92703 2.60291 3.39374 3.75287 3.34101 4.97323C3.34404 5.79245 3.5887 6.59257 4.04436 7.27339C3.3183 7.48096 2.67574 7.91126 2.20733 8.50359C1.73893 9.09591 1.46833 9.82036 1.43372 10.5747C1.43372 12.5327 3.27764 14.1232 5.55246 14.1232H5.67285C5.83126 14.402 6.00235 14.6935 6.17977 14.9849C6.8498 16.0147 7.39438 17.1209 7.80192 18.2799H5.90097C5.73291 18.2799 5.57174 18.3467 5.45291 18.4655C5.33407 18.5844 5.26731 18.7455 5.26731 18.9136C5.26731 19.0816 5.33407 19.2428 5.45291 19.3616C5.57174 19.4805 5.73291 19.5472 5.90097 19.5472H13.5048C13.6729 19.5472 13.834 19.4805 13.9529 19.3616C14.0717 19.2428 14.1384 19.0816 14.1384 18.9136C14.1384 18.7455 14.0717 18.5844 13.9529 18.4655C13.834 18.3467 13.6729 18.2799 13.5048 18.2799H11.344V17.5449C11.7237 16.6918 12.1842 15.877 12.7191 15.1117ZM9.40507 9.35177L9.36705 9.26939H9.46209L9.40507 9.35177ZM9.27833 12.1082C9.61372 12.9093 10.2039 13.5774 10.9575 14.0091C10.3595 14.8645 9.84792 15.7772 9.43041 16.7338C9.00352 15.7714 8.51019 14.8397 7.954 13.9458L7.7449 13.5846C8.392 13.2426 8.92666 12.7212 9.28467 12.0828L9.27833 12.1082Z" fill="white"/>
</svg>
