<svg width="20" height="20" viewBox="0 0 20 20" fill="none" xmlns="http://www.w3.org/2000/svg">
<path d="M6.4 1.87818C6.39996 1.64533 6.30513 1.42203 6.13635 1.25739C5.96757 1.09276 5.73867 1.00027 5.5 1.00027C5.26133 1.00027 5.03243 1.09276 4.86365 1.25739C4.69487 1.42203 4.60004 1.64533 4.6 1.87818V2.77202C4.6036 2.81066 4.6045 2.82734 4.4137 3.01349L4.3957 3.03105C4.1554 3.26461 3.7 3.70714 3.7 4.5123V5.39035C3.7 5.62322 3.79482 5.84655 3.9636 6.01122C4.13239 6.17588 4.36131 6.26839 4.6 6.26839C4.83869 6.26839 5.06761 6.17588 5.2364 6.01122C5.40518 5.84655 5.5 5.62322 5.5 5.39035V4.5123V4.4965C5.4964 4.45786 5.4955 4.44118 5.6863 4.25504L5.7043 4.23748C5.9446 4.00392 6.4 3.56138 6.4 2.75622V1.87818ZM1 8.46349C1 8.23062 1.09482 8.00729 1.2636 7.84262C1.43239 7.67796 1.66131 7.58545 1.9 7.58545H18.1C18.3387 7.58545 18.5676 7.67796 18.7364 7.84262C18.9052 8.00729 19 8.23062 19 8.46349V9.34154C19 12.9415 16.7788 16.0366 13.6 17.3914V18.122C13.6 18.3548 13.5052 18.5782 13.3364 18.7428C13.1676 18.9075 12.9387 19 12.7 19H7.3C7.0613 19 6.83239 18.9075 6.6636 18.7428C6.49482 18.5782 6.4 18.3548 6.4 18.122V17.3914C4.79474 16.7077 3.42882 15.5819 2.46965 14.152C1.51048 12.7222 0.999731 11.0504 1 9.34154V8.46349ZM15.4 1.00013C15.6387 1.00013 15.8676 1.09264 16.0364 1.25731C16.2052 1.42197 16.3 1.64531 16.3 1.87818V2.75622C16.3 3.56051 15.8446 4.00304 15.6043 4.23748L15.5863 4.25504C15.3955 4.44118 15.3973 4.45786 15.3991 4.4965L15.4 4.5123V5.39035C15.4 5.50566 15.3768 5.61985 15.3315 5.7264C15.2863 5.83294 15.22 5.92975 15.1364 6.0113C15.0529 6.09285 14.9536 6.15754 14.8444 6.20167C14.7352 6.24581 14.6182 6.26852 14.5 6.26852C14.3818 6.26852 14.2648 6.24581 14.1556 6.20167C14.0464 6.15754 13.9471 6.09285 13.8636 6.0113C13.78 5.92975 13.7137 5.83294 13.6685 5.7264C13.6232 5.61985 13.6 5.50566 13.6 5.39035V4.5123C13.6 3.70802 14.0554 3.26548 14.2957 3.03105L14.3137 3.01349C14.5045 2.82734 14.5027 2.81066 14.5009 2.77202L14.5 2.75622V1.87818C14.5 1.64531 14.5948 1.42197 14.7636 1.25731C14.9324 1.09264 15.1613 1.00013 15.4 1.00013ZM11.35 1.87818C11.35 1.76286 11.3268 1.64867 11.2815 1.54212C11.2363 1.43558 11.17 1.33877 11.0864 1.25722C11.0029 1.17567 10.9036 1.11098 10.7944 1.06685C10.6852 1.02272 10.5682 1 10.45 1C10.3318 1 10.2148 1.02272 10.1056 1.06685C9.99635 1.11098 9.89713 1.17567 9.81355 1.25722C9.72998 1.33877 9.66369 1.43558 9.61847 1.54212C9.57325 1.64867 9.54998 1.76286 9.55 1.87818V2.77202C9.5536 2.81066 9.5545 2.82734 9.3637 3.01349L9.3457 3.03105C9.1054 3.26461 8.65 3.70714 8.65 4.5123V5.39035C8.64998 5.50566 8.67325 5.61985 8.71847 5.7264C8.76369 5.83294 8.82998 5.92975 8.91355 6.0113C8.99713 6.09285 9.09635 6.15754 9.20555 6.20167C9.31475 6.24581 9.4318 6.26852 9.55 6.26852C9.6682 6.26852 9.78524 6.24581 9.89445 6.20167C10.0036 6.15754 10.1029 6.09285 10.1864 6.0113C10.27 5.92975 10.3363 5.83294 10.3815 5.7264C10.4268 5.61985 10.45 5.50566 10.45 5.39035V4.5123V4.4965C10.4464 4.45786 10.4455 4.44118 10.6363 4.25504L10.6543 4.23748C10.8946 4.00392 11.35 3.56138 11.35 2.75622V1.87818Z" fill="white"/>
</svg>
