<svg width="20" height="20" viewBox="0 0 20 20" fill="none" xmlns="http://www.w3.org/2000/svg">
<path d="M13.9617 0C10.7158 5.45637 8.15115 2.76831 4.38432 6.68004C1.05829 10.1505 2.20036 14.323 5.00545 15.7472C7.77046 14.323 10.5956 11.1133 12.6794 6.47944C12.6794 6.47944 14.5628 12.337 8.79231 17.9539C11.5974 21.2839 16.346 18.9569 17.6684 13.681C19.131 7.94383 15.3642 2.08626 13.9617 0ZM2 18.8766C2 18.9368 2.06011 20 3.46265 20C4.46447 20 9.59376 17.1715 12.2185 9.82949C8.23129 16.991 2.46084 18.7563 2 18.8766Z" fill="white"/>
</svg>
