<svg width="20" height="20" viewBox="0 0 20 20" fill="none" xmlns="http://www.w3.org/2000/svg">
<g clip-path="url(#clip0_130_1023)">
<path d="M10 0C10.2955 0 10.5605 0.169546 10.6645 0.425455L11.2764 1.93409C11.5409 2.58545 11.1836 3.31182 10.4786 3.55636C10.3247 3.60948 10.1629 3.63652 10 3.63636C9.24682 3.63636 8.63636 3.07227 8.63636 2.37636C8.63636 2.22545 8.66591 2.07545 8.72318 1.93409L9.33545 0.425455C9.43909 0.169546 9.70364 0 10 0ZM10 20C9.70409 20 9.43909 19.8305 9.33545 19.5745L8.72318 18.0659C8.66598 17.9255 8.6365 17.7753 8.63636 17.6236C8.63636 16.9282 9.24682 16.3636 10 16.3636C10.1636 16.3636 10.3255 16.3909 10.4786 16.4436C11.1836 16.6882 11.5409 17.4145 11.2764 18.0664L10.6645 19.5745C10.5605 19.8305 10.2955 20 10 20ZM20 10C20 10.2955 19.8305 10.5605 19.5745 10.6645L18.0659 11.2764C17.4145 11.5409 16.6882 11.1836 16.4436 10.4786C16.3905 10.3247 16.3635 10.1629 16.3636 10C16.3636 9.24682 16.9277 8.63636 17.6236 8.63636C17.7745 8.63636 17.9245 8.66591 18.0659 8.72318L19.5745 9.33545C19.8305 9.43909 20 9.70364 20 10ZM0 10C0 9.70409 0.169546 9.43909 0.425455 9.33545L1.93409 8.72318C2.075 8.66591 2.225 8.63636 2.37636 8.63636C3.07182 8.63636 3.63636 9.24682 3.63636 10C3.63636 10.1636 3.60909 10.3255 3.55636 10.4786C3.31182 11.1836 2.58545 11.5409 1.93364 11.2764L0.425455 10.6645C0.169546 10.5605 0 10.2955 0 10ZM2.92864 2.92909C3.13773 2.72 3.445 2.65273 3.69955 2.76L5.19909 3.39364C5.84682 3.66773 6.10773 4.43364 5.78182 5.105C5.71055 5.25159 5.6153 5.38525 5.5 5.50045C4.96773 6.03273 4.13727 6.06545 3.64545 5.57318C3.53816 5.46591 3.45265 5.33887 3.39364 5.19909L2.76 3.7C2.65227 3.44545 2.71955 3.13818 2.92864 2.92909ZM17.0709 17.0714C16.8618 17.2805 16.5545 17.3477 16.3 17.24L14.8009 16.6064C14.661 16.5475 14.5338 16.4622 14.4264 16.355C13.9345 15.8627 13.9673 15.0323 14.4995 14.5C14.6148 14.3847 14.7484 14.2894 14.895 14.2182C15.5664 13.8923 16.3323 14.1532 16.6064 14.8009L17.24 16.3005C17.3473 16.555 17.28 16.8618 17.0709 17.0714ZM17.0709 2.92864C17.28 3.13773 17.3473 3.445 17.24 3.69955L16.6064 5.19909C16.3323 5.84682 15.5664 6.10773 14.895 5.78182C14.7484 5.71055 14.6148 5.6153 14.4995 5.5C13.9673 4.96773 13.9345 4.13727 14.4268 3.64545C14.5332 3.53818 14.66 3.45318 14.8009 3.39364L16.3 2.76C16.5545 2.65227 16.8618 2.71955 17.0709 2.92864ZM2.92864 17.0709C2.71955 16.8618 2.65227 16.5545 2.76 16.3L3.39364 14.8009C3.45273 14.66 3.53818 14.5332 3.645 14.4264C4.13727 13.9345 4.96773 13.9673 5.5 14.4995C5.61591 14.6155 5.71136 14.7495 5.78182 14.895C6.10773 15.5664 5.84682 16.3323 5.19909 16.6064L3.69955 17.24C3.445 17.3473 3.13818 17.28 2.92864 17.0709ZM10 15C7.23864 15 5 12.7614 5 10C5 7.23864 7.23864 5 10 5C12.7614 5 15 7.23864 15 10C15 12.7614 12.7614 15 10 15Z" fill="white"/>
</g>
<defs>
<clipPath id="clip0_130_1023">
<rect width="20" height="20" fill="white"/>
</clipPath>
</defs>
</svg>
