<svg width="20" height="20" viewBox="0 0 20 20" fill="none" xmlns="http://www.w3.org/2000/svg">
<path d="M12.8473 6.80114V13.2768C12.8473 13.4501 12.6616 13.5739 12.5007 13.512L10.2724 12.5958C10.099 12.5215 9.91334 12.5215 9.74003 12.5958L7.51169 13.512C7.35076 13.5739 7.16506 13.4625 7.16506 13.2768V6.80114H1V19.5047C1 19.7771 1.22283 20 1.49519 20H18.5048C18.7772 20 19 19.7771 19 19.5047V6.80114H12.8473ZM18.9752 5.14786C18.9629 5.07357 18.9257 4.99928 18.8762 4.93737L15.8432 1.18572C15.7442 1.07429 15.608 1 15.4594 1H4.60248C4.45392 1 4.31774 1.06191 4.21871 1.17334L1.11142 4.93737C1.0619 4.99928 1.02476 5.07357 1.01238 5.14786H18.9752Z" fill="white"/>
</svg>
