<svg width="20" height="20" viewBox="0 0 20 20" fill="none" xmlns="http://www.w3.org/2000/svg">
<g clip-path="url(#clip0_130_995)">
<path d="M6.1251 10.0054H0.629245C0.28551 10.0054 0.00427246 9.7242 0.00427246 9.38046V8.13052C0.00427246 7.78678 0.28551 7.50554 0.629245 7.50554H6.18369C6.80476 7.50554 7.38677 7.07978 7.48832 6.46653C7.61722 5.68531 7.01569 5.00565 6.254 5.00565C5.70324 5.00565 5.23451 5.36501 5.06655 5.86108C4.98453 6.10717 4.73063 6.2556 4.47283 6.2556H3.19163C2.80884 6.2556 2.50026 5.91186 2.57057 5.53688C2.90649 3.8143 4.42986 2.50576 6.2501 2.50576C8.48047 2.50576 10.2616 4.46271 9.96869 6.74776C9.73041 8.63831 8.02736 10.0054 6.1251 10.0054ZM0.629245 11.2554H13.7537C16.0856 11.2554 17.9254 13.3959 17.4176 15.8138C17.1207 17.2278 15.9762 18.3723 14.5622 18.6691C12.3983 19.1222 10.4569 17.6965 10.0741 15.72C9.99993 15.345 10.3124 15.0052 10.6913 15.0052H11.9725C12.2342 15.0052 12.4842 15.1537 12.5662 15.3997C12.7342 15.8958 13.2029 16.2552 13.7537 16.2552C14.5115 16.2552 15.1169 15.5755 14.988 14.7943C14.8864 14.181 14.3083 13.7553 13.6834 13.7553H0.629245C0.28551 13.7553 0.00427246 13.474 0.00427246 13.1303V11.8804C0.00427246 11.5366 0.28551 11.2554 0.629245 11.2554ZM15.6286 10.0054H9.52339C10.2773 9.35703 10.8202 8.48988 11.078 7.50554H15.6286C16.6637 7.50554 17.5035 6.66574 17.5035 5.63063C17.5035 4.59551 16.6637 3.75571 15.6286 3.75571C14.9294 3.75571 14.3279 4.14241 14.0037 4.70879C13.8904 4.90409 13.6638 5.00565 13.4373 5.00565H12.117C11.6913 5.00565 11.3749 4.5838 11.5194 4.18147C12.2147 2.20499 14.2732 0.869112 16.5739 1.35737C18.1832 1.6972 19.5073 2.9823 19.8823 4.5877C20.5503 7.44695 18.3824 10.0054 15.6286 10.0054Z" fill="white"/>
</g>
<defs>
<clipPath id="clip0_130_995">
<rect width="20" height="20" fill="white"/>
</clipPath>
</defs>
</svg>
