<svg width="20" height="20" viewBox="0 0 20 20" fill="none" xmlns="http://www.w3.org/2000/svg">
<path d="M9.85645 0C11.0516 5.72917e-05 12.2115 0.235642 13.3037 0.696289C14.3582 1.14355 15.305 1.78055 16.1182 2.59375C16.9314 3.40697 17.5684 4.35372 18.0156 5.4082C18.4791 6.50054 18.7119 7.66112 18.7119 8.85645C18.7119 10.0516 18.4763 11.2115 18.0156 12.3037C17.6741 13.1088 17.2207 13.8517 16.665 14.5186L19.7588 17.6094C20.0759 17.9292 20.0764 18.4418 19.7568 18.7617C19.5996 18.9217 19.3904 19 19.1816 19C18.973 19 18.7673 18.9216 18.6074 18.7617L15.5186 15.665C14.849 16.2235 14.1088 16.6741 13.3037 17.0156C12.2115 17.479 11.0516 17.7119 9.85645 17.7119C8.66112 17.7119 7.50054 17.4764 6.4082 17.0156C5.35372 16.5684 4.40697 15.9314 3.59375 15.1182C2.78055 14.305 2.14355 13.3582 1.69629 12.3037C1.23293 11.2115 1.00006 10.0516 1 8.85645C1 7.66114 1.23556 6.50053 1.69629 5.4082C2.14356 4.35372 2.78053 3.40697 3.59375 2.59375C4.40697 1.78053 5.35372 1.14356 6.4082 0.696289C7.50053 0.232852 8.66114 0 9.85645 0ZM9.85352 3.05469C9.40355 3.05469 9.04007 3.4182 9.04004 3.86816C9.04004 4.31815 9.40353 4.68164 9.85352 4.68164C12.1574 4.68186 14.0301 6.55725 14.0303 8.8584C14.0303 9.30838 14.3938 9.67188 14.8438 9.67188C15.2937 9.67179 15.6572 9.30562 15.6572 8.8584C15.6571 7.30799 15.0521 5.84995 13.957 4.75488C12.8593 3.65984 11.4039 3.05479 9.85352 3.05469Z" fill="white"/>
</svg>
