<svg width="20" height="20" viewBox="0 0 20 20" fill="none" xmlns="http://www.w3.org/2000/svg">
<path d="M10 2C15.5228 2 20 5.58172 20 10C20 14.4183 15.5228 18 10 18C4.47715 18 0 14.4183 0 10C0 5.58172 4.47715 2 10 2ZM5.46289 6.18652C5.14719 5.80311 4.54041 5.71267 4.10742 5.98438C3.56373 6.32576 3.08086 6.72968 2.67578 7.18262C1.67704 8.2997 1.14466 9.7211 1.32422 11.2266C1.38034 11.6943 1.85797 12.0386 2.39062 11.9961C2.92335 11.9532 3.3096 11.5392 3.25391 11.0713C3.13076 10.0381 3.49187 9.04626 4.20898 8.24414C4.50051 7.91821 4.85162 7.62381 5.25098 7.37305C5.68374 7.10115 5.77852 6.56994 5.46289 6.18652ZM8 4C7.44772 4 7 4.44772 7 5C7 5.55228 7.44772 6 8 6C8.55228 6 9 5.55228 9 5C9 4.44772 8.55228 4 8 4Z" fill="white"/>
</svg>
