<svg width="20" height="20" viewBox="0 0 20 20" fill="none" xmlns="http://www.w3.org/2000/svg">
<g clip-path="url(#clip0_130_1016)">
<path d="M11.0276 10.4029L11.0269 10.4049C10.8086 10.4951 10.6069 10.6081 10.4167 10.7326V4.84656C10.6787 4.93931 10.9561 4.99956 11.2499 4.99956L11.2516 4.99881C13.1006 4.99881 14.7118 3.99209 15.5767 2.4989C14.7118 1.00546 13.1006 -0.00100708 11.2516 -0.00100708L11.2499 -0.000257021C9.86969 -0.000257021 8.74998 1.11945 8.74998 2.49965V4.90031C8.61648 4.82206 8.48449 4.74007 8.33749 4.67907C6.03608 3.72535 3.51267 4.14834 1.66699 5.55928C1.97373 7.8632 3.45892 9.94562 5.76009 10.9003C6.7743 11.3203 7.87101 11.1973 8.74998 10.6811V19.999H10.4167V16.8929C11.4019 17.5383 12.6788 17.7023 13.849 17.2176L13.8505 17.2161C16.3692 16.1716 17.9969 13.891 18.3329 11.3681C16.3114 9.82212 13.5478 9.35814 11.0276 10.4029Z" fill="white"/>
</g>
<defs>
<clipPath id="clip0_130_1016">
<rect width="20" height="20" fill="white"/>
</clipPath>
</defs>
</svg>
