<svg width="20" height="20" viewBox="0 0 20 20" fill="none" xmlns="http://www.w3.org/2000/svg">
<g clip-path="url(#clip0_130_987)">
<path d="M19.9999 0C17.9772 0.139063 3.76701 1.49219 2.77365 11.2348C2.65294 12.2762 2.58458 13.3223 2.53966 14.3692L9.5268 7.3891C9.77095 7.14496 10.1674 7.14496 10.4116 7.3891C10.6557 7.63324 10.6557 8.02895 10.4116 8.27309L0.274806 18.3997C-0.091602 18.7657 -0.091602 19.3595 0.274806 19.7255C0.641214 20.0915 1.23536 20.0915 1.60216 19.7255L3.83381 17.4962C5.47796 17.4907 7.12093 17.3974 8.75414 17.2087C10.8432 16.9962 12.544 16.1747 13.9331 15.0001H9.9897L15.7237 13.0907C16.1632 12.509 16.5585 11.8911 16.9132 11.2501H13.7436L17.9054 9.17153C19.5425 5.18987 19.9292 1.02579 19.9999 0Z" fill="white"/>
</g>
<defs>
<clipPath id="clip0_130_987">
<rect width="20" height="20" fill="white"/>
</clipPath>
</defs>
</svg>
