<svg width="20" height="20" viewBox="0 0 20 20" fill="none" xmlns="http://www.w3.org/2000/svg">
<path d="M10 1C14.9706 1 19 5.02944 19 10C19 14.9706 14.9706 19 10 19C5.02944 19 1 14.9706 1 10C1 5.02944 5.02944 1 10 1ZM6.46387 5.26465C6.14818 4.79711 5.54035 4.68729 5.10742 5.01855C4.56377 5.43494 4.08183 5.92801 3.67676 6.48047C2.67782 7.84316 2.14474 9.5765 2.32422 11.4131C2.38013 11.9841 2.85769 12.4046 3.39062 12.3525C3.92331 12.3003 4.31046 11.7954 4.25488 11.2246C4.13172 9.96399 4.49162 8.75298 5.20898 7.77441C5.50049 7.37695 5.85171 7.0187 6.25098 6.71289C6.68364 6.38121 6.77942 5.73233 6.46387 5.26465ZM8.5 2C7.67157 2 7 2.67157 7 3.5C7 4.32843 7.67157 5 8.5 5C9.32843 5 10 4.32843 10 3.5C10 2.67157 9.32843 2 8.5 2Z" fill="white"/>
</svg>
