<svg width="20" height="20" viewBox="0 0 20 20" fill="none" xmlns="http://www.w3.org/2000/svg">
<path d="M9.50038 1C14.7467 1 19 5.25328 19 10.5004C19 11.7593 18.3258 12.3168 16.6616 12.7668L16.2905 12.8615L16.092 12.9084L15.6739 13.0008L14.8846 13.1637L14.4975 13.25L14.1521 13.3334L13.9945 13.3758L13.7082 13.4591C13.1719 13.628 12.85 13.8038 12.6477 14.0325C12.2735 14.4545 12.0872 15.065 11.9758 16.0777L11.8955 16.911L11.8751 17.1079L11.8281 17.4806C11.5782 19.2721 11.0487 20 9.50038 20C4.25328 20 2.51509e-08 15.7467 0 10.5004C0 5.25328 4.25328 1 9.50038 1ZM6.40681 11.6048C6.14567 11.6048 5.88708 11.6562 5.64581 11.7561C5.40454 11.856 5.18532 12.0025 5.00066 12.1871C4.81599 12.3717 4.66951 12.591 4.56957 12.8322C4.46963 13.0735 4.41819 13.3321 4.41819 13.5932C4.41819 13.8543 4.46963 14.1129 4.56957 14.3542C4.66951 14.5954 4.81599 14.8146 5.00066 14.9993C5.18532 15.1839 5.40454 15.3304 5.64581 15.4303C5.88708 15.5302 6.14567 15.5816 6.40681 15.5816C6.93413 15.5815 7.43983 15.372 7.81268 14.9991C8.18552 14.6262 8.39498 14.1205 8.39498 13.5932C8.39498 13.0659 8.18552 12.5601 7.81268 12.1873C7.43983 11.8144 6.93413 11.6049 6.40681 11.6048ZM5.9652 5.86078C5.70406 5.86075 5.44547 5.91216 5.2042 6.01208C4.96293 6.11199 4.7437 6.25845 4.55904 6.44309C4.37438 6.62773 4.22789 6.84694 4.12795 7.0882C4.02801 7.32946 3.97657 7.58804 3.97657 7.84918C3.97657 8.11032 4.02801 8.3689 4.12795 8.61016C4.22789 8.85142 4.37438 9.07063 4.55904 9.25527C4.7437 9.43991 4.96293 9.58637 5.2042 9.68629C5.44547 9.7862 5.70406 9.83761 5.9652 9.83758C6.49251 9.83752 6.99821 9.628 7.37106 9.25511C7.74391 8.88222 7.95337 8.3765 7.95337 7.84918C7.95337 7.32186 7.74391 6.81614 7.37106 6.44325C6.99821 6.07036 6.49251 5.86084 5.9652 5.86078ZM11.2676 4.09281C11.0065 4.09278 10.7479 4.14419 10.5066 4.24411C10.2653 4.34402 10.0461 4.49048 9.86144 4.67512C9.67677 4.85976 9.53029 5.07897 9.43035 5.32023C9.33041 5.56149 9.27897 5.82007 9.27897 6.08121C9.27897 6.34235 9.33041 6.60093 9.43035 6.84219C9.53029 7.08345 9.67677 7.30266 9.86144 7.4873C10.0461 7.67194 10.2653 7.8184 10.5066 7.91832C10.7479 8.01823 11.0065 8.06964 11.2676 8.06961C11.7949 8.06955 12.3006 7.86003 12.6735 7.48714C13.0463 7.11425 13.2558 6.60853 13.2558 6.08121C13.2558 5.55389 13.0463 5.04817 12.6735 4.67528C12.3006 4.30239 11.7949 4.09287 11.2676 4.09281Z" fill="white"/>
</svg>
