<svg width="20" height="20" viewBox="0 0 20 20" fill="none" xmlns="http://www.w3.org/2000/svg">
<g clip-path="url(#clip0_130_933)">
<path d="M8.63589 1.48359C9.02162 0.82132 9.97838 0.821321 10.3641 1.48359L12.6727 5.44714C12.814 5.68974 13.0508 5.86177 13.3251 5.92119L17.8081 6.89196C18.5571 7.05416 18.8528 7.96409 18.3421 8.53559L15.286 11.956C15.0989 12.1653 15.0085 12.4437 15.0367 12.723L15.4988 17.2865C15.576 18.049 14.802 18.6114 14.1006 18.3023L9.90325 16.4527C9.64634 16.3395 9.35366 16.3395 9.09675 16.4527L4.89937 18.3023C4.19803 18.6114 3.424 18.049 3.5012 17.2865L3.96326 12.723C3.99154 12.4437 3.9011 12.1653 3.71404 11.956L0.657857 8.53559C0.147202 7.96409 0.442856 7.05416 1.19191 6.89196L5.67486 5.92119C5.94925 5.86177 6.18602 5.68974 6.32733 5.44714L8.63589 1.48359Z" fill="white"/>
</g>
<defs>
<clipPath id="clip0_130_933">
<rect width="20" height="20" fill="white"/>
</clipPath>
</defs>
</svg>
