<svg width="20" height="20" viewBox="0 0 20 20" fill="none" xmlns="http://www.w3.org/2000/svg">
<path d="M5.24802 1.14909C1.17818 3.50754 -0.209108 8.71831 2.14934 12.7879C4.30721 16.5116 8.85275 17.989 12.7275 16.4069L15.0048 19.6059C15.1143 19.7885 15.2912 19.9207 15.4973 19.9741C15.7035 20.0275 15.9223 19.9977 16.1067 19.8912C16.291 19.7847 16.4262 19.61 16.4829 19.4047C16.5397 19.1995 16.5135 18.9802 16.41 18.7941L14.7665 15.2255C18.066 12.6492 19.045 7.97142 16.8866 4.24776C14.5284 0.178151 9.3174 -1.2089 5.24802 1.14909ZM12.6351 14.0807L12.5773 14.1129C12.5651 14.1209 12.5525 14.1285 12.5396 14.1359C10.3408 15.41 7.77807 14.5269 6.30591 11.9881C5.04215 9.80748 5.73222 7.44949 8.02259 6.12247C9.65761 5.175 11.1946 5.8538 11.8663 7.0129C12.2167 7.60887 12.3176 8.3191 12.1469 8.98905C12.0147 9.49948 11.6586 10.2218 10.715 10.7688C10.6226 10.8244 10.5201 10.861 10.4133 10.8766C10.3066 10.8922 10.1978 10.8864 10.0934 10.8595C9.98893 10.8326 9.89087 10.7852 9.80492 10.72C9.71898 10.6549 9.64687 10.5732 9.59279 10.4799C9.53872 10.3866 9.50376 10.2834 9.48996 10.1764C9.47616 10.0695 9.48379 9.96081 9.51241 9.85682C9.54103 9.75283 9.59007 9.65557 9.65666 9.57072C9.72326 9.48587 9.80607 9.41513 9.90029 9.36261C10.7026 8.89773 10.7054 8.24469 10.4625 7.82627C10.2143 7.39819 9.63852 7.06144 8.83619 7.52724C8.10724 7.94957 6.53708 9.15191 7.70906 11.1754C8.70668 12.8949 10.2978 13.5263 11.6816 12.7569C11.6949 12.7479 11.7085 12.7394 11.7225 12.7313L11.818 12.6759C14.1873 11.3036 14.9981 8.26056 13.6249 5.89015C12.2516 3.51973 9.20952 2.7105 6.83911 4.08399C4.46869 5.45747 3.65992 8.49933 5.03317 10.8693C5.08667 10.9616 5.12146 11.0635 5.13556 11.1693C5.14966 11.2751 5.14279 11.3826 5.11534 11.4857C5.08789 11.5888 5.04041 11.6855 4.97559 11.7702C4.91078 11.855 4.82991 11.9261 4.73759 11.9796C4.64528 12.0331 4.54333 12.0679 4.43757 12.082C4.33181 12.0961 4.22431 12.0892 4.12121 12.0618C3.91298 12.0063 3.7353 11.8705 3.62726 11.684C1.80592 8.54142 2.88128 4.50263 6.02412 2.68129C9.16696 0.859947 13.2108 1.93532 15.0324 5.07793C16.854 8.22054 15.7774 12.2596 12.6351 14.0807Z" fill="white"/>
</svg>
