<svg width="20" height="20" viewBox="0 0 20 20" fill="none" xmlns="http://www.w3.org/2000/svg">
<g clip-path="url(#clip0_132_1032)">
<path d="M18.6911 10.7813C18.04 10.1305 17.0815 10.0719 16.4304 10.7227L14.5694 12.5827C14.0849 13.0664 13.5011 13.0675 13.1603 12.6654C12.9345 12.3989 13.0236 11.5772 13.0869 11.056L14.0202 3.3842C14.1036 2.69879 13.6153 2.03665 12.9296 1.95335C12.244 1.87 11.6206 2.39705 11.5371 3.08232L10.5076 9.10808C10.4538 9.25799 10.3384 9.28388 10.3254 9.0821L9.97505 1.25C9.97505 0.559598 9.41514 0 8.72442 0C8.03366 0 7.47375 0.559598 7.47375 1.25L7.44911 9.14071C7.45563 9.23179 7.3775 9.25786 7.3634 9.15384L6.25076 2.99451C6.12799 2.31509 5.47741 1.82473 4.79773 1.9475C4.11795 2.07018 3.66652 2.75942 3.7892 3.43871L4.77996 10.6465C4.78099 10.7747 4.73795 10.848 4.67692 10.6836L3.19884 6.73196C2.96759 6.08143 2.25259 5.70228 1.6017 5.93335C0.950851 6.16446 0.610584 6.91821 0.841744 7.56866L3.43291 16.0341C3.44643 16.0808 3.46076 16.1271 3.47545 16.1733L3.48085 16.1907C3.48134 16.1921 3.48197 16.1933 3.48241 16.1946C4.2 18.4033 6.27549 20 8.72447 20C10.2921 20 11.9205 19.4474 13.16 18.4968C13.1601 18.4968 13.1602 18.4967 13.1602 18.4967C14.499 17.6908 18.7884 13.0794 18.7884 13.0794C19.4396 12.4287 19.3423 11.4321 18.6911 10.7813Z" fill="white"/>
</g>
<defs>
<clipPath id="clip0_132_1032">
<rect width="20" height="20" fill="white"/>
</clipPath>
</defs>
</svg>
