<svg width="20" height="20" viewBox="0 0 20 20" fill="none" xmlns="http://www.w3.org/2000/svg">
<g clip-path="url(#clip0_130_972)">
<path d="M8.09635 0.0382996C13.7758 0.0382996 17.3395 2.84251 18.7877 8.45218C18.7827 8.46463 18.9521 8.58044 19.2945 8.80457L19.4315 8.89174C19.6047 9.00386 19.7473 9.15726 19.8465 9.33816C19.9458 9.51905 19.9985 9.72176 20 9.92808C20.0014 10.1344 19.9516 10.3378 19.855 10.5201C19.7584 10.7024 19.618 10.8579 19.4464 10.9725C19.2223 11.1219 19.0031 11.2788 18.7865 11.4432C18.4029 13.7692 16.0258 19.9616 8.0976 19.9616H8.09386C3.62356 19.9616 0 15.5013 0 9.99997C0 4.49864 3.62356 0.0382996 8.09386 0.0382996H8.09635ZM8.09386 1.28351C4.18266 1.28351 1.01111 5.18599 1.01111 9.99997C1.01111 14.814 4.1839 18.7164 8.09386 18.7164C12.0038 18.7164 15.1766 14.814 15.1766 9.99997C15.1766 5.18599 12.0038 1.28351 8.09386 1.28351ZM8.08514 11.2103L10.7001 16.749C9.91165 17.2187 9.01159 17.4681 8.09386 17.4712C7.17859 17.4682 6.28083 17.2201 5.49386 16.7527L8.08514 11.2103ZM4.61848 16.1264C3.17902 14.8874 2.19655 12.9001 2.04463 10.6226H7.19233L4.61848 16.1264ZM2.04463 9.37737C2.19655 7.09864 3.18026 5.11128 4.61973 3.8723L7.21972 9.37737H2.04463ZM5.49386 3.24596C6.28095 2.77904 7.1787 2.53139 8.09386 2.52872C9.00784 2.52872 9.87451 2.77776 10.6528 3.2223L8.08016 8.72363L5.49386 3.24596ZM11.5306 3.84117C12.9913 5.07766 13.9899 7.07871 14.1431 9.37737H8.94185L11.5306 3.84117ZM14.1431 10.6226C13.9912 12.8976 13.0099 14.8824 11.5742 16.1227L8.97796 10.6226H14.1431Z" fill="white"/>
</g>
<defs>
<clipPath id="clip0_130_972">
<rect width="20" height="20" fill="white"/>
</clipPath>
</defs>
</svg>
